<svg xmlns="http://www.w3.org/2000/svg" viewBox="0 0 1280 640" role="img" aria-labelledby="title desc">
  <title id="title">F.R.I.D.A.Y. personal AI agent banner</title>
  <desc id="desc">A dark technical interface banner with the blue-flame F.R.I.D.A.Y. face and wordmark.</desc>
  <defs>
    <linearGradient id="background" x1="0" y1="0" x2="1280" y2="640" gradientUnits="userSpaceOnUse">
      <stop stop-color="#020609"/>
      <stop offset="0.54" stop-color="#071119"/>
      <stop offset="1" stop-color="#031018"/>
    </linearGradient>
    <linearGradient id="line" x1="530" y1="0" x2="1190" y2="0" gradientUnits="userSpaceOnUse">
      <stop stop-color="#4DD6FF"/>
      <stop offset="1" stop-color="#4DD6FF" stop-opacity="0"/>
    </linearGradient>
    <radialGradient id="aura" cx="0" cy="0" r="1" gradientTransform="translate(320 320) rotate(90) scale(290)">
      <stop stop-color="#1E9AC2" stop-opacity="0.28"/>
      <stop offset="1" stop-color="#1E9AC2" stop-opacity="0"/>
    </radialGradient>
    <pattern id="grid" width="40" height="40" patternUnits="userSpaceOnUse">
      <path d="M40 0H0V40" fill="none" stroke="#4DD6FF" stroke-opacity="0.055"/>
    </pattern>
    <pattern id="micro" width="8" height="8" patternUnits="userSpaceOnUse">
      <circle cx="1" cy="1" r="0.8" fill="#8BE7FF" fill-opacity="0.12"/>
    </pattern>
    <filter id="glow" x="-60%" y="-60%" width="220%" height="220%">
      <feGaussianBlur stdDeviation="9" result="blur"/>
      <feMerge><feMergeNode in="blur"/><feMergeNode in="SourceGraphic"/></feMerge>
    </filter>
    <clipPath id="frame"><rect width="1280" height="640" rx="24"/></clipPath>
  </defs>

  <g clip-path="url(#frame)">
    <rect width="1280" height="640" fill="url(#background)"/>
    <rect width="1280" height="640" fill="url(#grid)"/>
    <rect width="1280" height="640" fill="url(#micro)"/>
    <circle cx="320" cy="320" r="290" fill="url(#aura)"/>
    <path d="M0 538 356 182 542 368 907 3" fill="none" stroke="#4DD6FF" stroke-opacity="0.055" stroke-width="90"/>
    <path d="M1010 0 690 320l250 250" fill="none" stroke="#D8B36A" stroke-opacity="0.035" stroke-width="70"/>

    <g transform="translate(60 58)">
      <circle cx="260" cy="262" r="226" fill="#020609" stroke="#4DD6FF" stroke-opacity="0.18" stroke-width="2"/>
      <circle cx="260" cy="262" r="209" fill="none" stroke="#4DD6FF" stroke-opacity="0.24" stroke-width="2" stroke-dasharray="3 18"/>
      <path d="M73 143c46-72 116-117 197-125" fill="none" stroke="#4DD6FF" stroke-opacity="0.26" stroke-width="5" stroke-linecap="round"/>
      <path d="M447 381c-43 70-110 114-188 124" fill="none" stroke="#D8B36A" stroke-opacity="0.72" stroke-width="4" stroke-linecap="round"/>
      <image href="friday-logo.png" x="15" y="15" width="490" height="490" preserveAspectRatio="xMidYMid meet"/>
      <path d="M49 225V101h124M471 299v124H347" fill="none" stroke="#4DD6FF" stroke-opacity="0.42" stroke-width="2"/>
      <circle cx="49" cy="225" r="5" fill="#D8B36A" filter="url(#glow)"/>
      <circle cx="471" cy="299" r="5" fill="#D8B36A" filter="url(#glow)"/>
    </g>

    <g transform="translate(585 150)">
      <text x="0" y="0" fill="#D8B36A" font-family="Consolas, monospace" font-size="15" letter-spacing="6">PERSONAL AI COMMAND SYSTEM</text>
      <rect y="28" width="522" height="2" fill="url(#line)"/>
      <text x="-5" y="128" fill="#E8F6FF" font-family="Bahnschrift, Arial Narrow, sans-serif" font-size="88" font-weight="700" letter-spacing="13">F.R.I.D.A.Y.</text>
      <text x="2" y="181" fill="#8BE7FF" font-family="Consolas, monospace" font-size="19" letter-spacing="4">LOCAL FIRST  /  VOICE  /  VISION  /  MEMORY</text>

      <g transform="translate(0 246)" font-family="Consolas, monospace">
        <rect width="565" height="100" rx="4" fill="#0B151C" stroke="#4DD6FF" stroke-opacity="0.22"/>
        <path d="M0 18V0h18M547 0h18v18M565 82v18h-18M18 100H0V82" fill="none" stroke="#D8B36A" stroke-width="2"/>
        <circle cx="29" cy="31" r="5" fill="#00CC66"/>
        <text x="46" y="36" fill="#9BB0BF" font-size="14" letter-spacing="2">SYSTEM ONLINE</text>
        <text x="29" y="70" fill="#4DD6FF" font-size="14" letter-spacing="2">OFFLINE BY DEFAULT</text>
        <text x="269" y="70" fill="#687C8B" font-size="14" letter-spacing="2">TOOLS STAY LOCAL</text>
      </g>
    </g>

    <g fill="#4DD6FF" opacity="0.55">
      <rect x="20" y="20" width="90" height="2"/>
      <rect x="20" y="20" width="2" height="42"/>
      <rect x="1170" y="618" width="90" height="2"/>
      <rect x="1258" y="578" width="2" height="42"/>
    </g>
    <text x="1160" y="45" fill="#687C8B" font-family="Consolas, monospace" font-size="11" letter-spacing="3">CORE // 01</text>
    <text x="24" y="608" fill="#687C8B" font-family="Consolas, monospace" font-size="11" letter-spacing="3">QWEN + KOKORO + WHISPER</text>
  </g>
  <rect x="1" y="1" width="1278" height="638" rx="23" fill="none" stroke="#4DD6FF" stroke-opacity="0.24" stroke-width="2"/>
</svg>
